<svg width="16" height="16" viewBox="0 0 16 16" fill="none" xmlns="http://www.w3.org/2000/svg">
    <path fill-rule="evenodd" clip-rule="evenodd" d="M0 8C0 3.58172 3.58172 0 8 0C12.4183 0 16 3.58172 16 8C16 12.4183 12.4183 16 8 16C3.58172 16 0 12.4183 0 8ZM10.9657 6.96569C11.2781 6.65327 11.2781 6.14673 10.9657 5.83431C10.6533 5.5219 10.1467 5.5219 9.83432 5.83431L7.2 8.46863L6.16569 7.43431C5.85327 7.12189 5.34673 7.12189 5.03431 7.43431C4.7219 7.74673 4.7219 8.25327 5.03431 8.56569L6.63432 10.1657C6.94673 10.4781 7.45327 10.4781 7.76569 10.1657L10.9657 6.96569Z" fill="#3B82F6"/>
</svg>