<svg display="none" xmlns="http://www.w3.org/2000/svg">
    <symbol id="code" viewBox="0 0 24 24">
        <path d="M10.4688 8.82123C10.7617 9.11412 10.7617 9.58899 10.4688 9.88189L8.34972 12.001L10.4688 14.1201C10.7617 14.413 10.7617 14.8878 10.4688 15.1807C10.1759 15.4736 9.70104 15.4736 9.40814 15.1807L6.75873 12.5313C6.46584 12.2384 6.46584 11.7636 6.75873 11.4707L9.40814 8.82124C9.70103 8.52834 10.1759 8.52834 10.4688 8.82123Z" />
        <path d="M14.5938 8.82124C14.3009 8.52834 13.8261 8.52834 13.5332 8.82123C13.2403 9.11412 13.2403 9.58899 13.5332 9.88189L15.6522 12.001L13.5332 14.1201C13.2403 14.413 13.2403 14.8878 13.5332 15.1807C13.8261 15.4736 14.3009 15.4736 14.5938 15.1807L17.2432 12.5313C17.5361 12.2384 17.5361 11.7636 17.2432 11.4707L14.5938 8.82124Z" />
        <path fill-rule="evenodd" clip-rule="evenodd" d="M3.74075 3.89729C4.72547 2.84115 6.12768 2.25 7.78313 2.25H16.2178C17.8772 2.25 19.2796 2.84086 20.2634 3.89772C21.2416 4.94852 21.75 6.39899 21.75 8.02638V15.9736C21.75 17.6014 21.2416 19.052 20.2632 20.1027C19.2792 21.1595 17.8765 21.75 16.2169 21.75H7.78313C6.1239 21.75 4.72126 21.1595 3.73717 20.1028C2.7587 19.0521 2.25 17.6015 2.25 15.9736V8.02638C2.25 6.39795 2.76147 4.9476 3.74075 3.89729ZM4.83786 4.9202C4.16042 5.64678 3.75 6.70962 3.75 8.02638V15.9736C3.75 17.2919 4.15882 18.3545 4.83488 19.0805C5.50534 19.8004 6.49426 20.25 7.78313 20.25H16.2169C17.5063 20.25 18.4951 19.8004 19.1654 19.0805C19.8414 18.3546 20.25 17.292 20.25 15.9736V8.02638C20.25 6.70858 19.8414 5.64586 19.1655 4.91976C18.4952 4.19974 17.5065 3.75 16.2178 3.75H7.78313C6.49923 3.75 5.50988 4.19944 4.83786 4.9202Z" />
    </symbol>
</svg>