<svg display="none" xmlns="http://www.w3.org/2000/svg">
    <symbol id="search" viewBox="0 0 20 20">
        <path fill-rule="evenodd" clip-rule="evenodd" d="M9.00556 2.5C12.5985 2.5 15.5111 5.41264 15.5111 9.00556C15.5111 10.489 15.0146 11.8564 14.1788 12.9508L17.2459 16.0192C17.5847 16.358 17.5847 16.9072 17.2459 17.2459C16.9333 17.5586 16.4412 17.5827 16.101 17.3181L16.0192 17.2459L12.9508 14.1788C11.8564 15.0146 10.489 15.5111 9.00556 15.5111C5.41264 15.5111 2.5 12.5985 2.5 9.00556C2.5 5.41264 5.41264 2.5 9.00556 2.5ZM9.00556 4.23482C6.37075 4.23482 4.23482 6.37075 4.23482 9.00556C4.23482 11.6404 6.37075 13.7763 9.00556 13.7763C11.6404 13.7763 13.7763 11.6404 13.7763 9.00556C13.7763 6.37075 11.6404 4.23482 9.00556 4.23482Z" />
    </symbol>
</svg>