<svg display="none" xmlns="http://www.w3.org/2000/svg">
    <symbol id="heart" viewBox="0 0 20 20">
        <path fill-rule="evenodd" clip-rule="evenodd" d="M6.92 4.08334C4.79808 4.08334 3.25 6.11291 3.25 8.12918C3.25 10.2358 4.57289 12.1835 6.19779 13.6548C6.99868 14.38 7.84168 14.9598 8.56305 15.3545C8.92381 15.5519 9.24494 15.698 9.50722 15.7927C9.78454 15.893 9.9441 15.9167 10 15.9167C10.0559 15.9167 10.2155 15.893 10.4928 15.7927C10.7551 15.698 11.0762 15.5519 11.437 15.3545C12.1583 14.9598 13.0013 14.38 13.8022 13.6548C15.4271 12.1835 16.75 10.2358 16.75 8.12918C16.75 6.11291 15.2019 4.08334 13.08 4.08334C11.8482 4.08334 11.0472 4.68841 10.5701 5.24651C10.4276 5.4132 10.2193 5.50918 10 5.50918C9.78071 5.50918 9.5724 5.4132 9.42991 5.24651C8.95282 4.68841 8.15182 4.08334 6.92 4.08334ZM1.75 8.12918C1.75 5.52044 3.75192 2.58334 6.92 2.58334C8.28501 2.58334 9.29799 3.10675 10 3.70307C10.702 3.10675 11.715 2.58334 13.08 2.58334C16.2481 2.58334 18.25 5.52044 18.25 8.12918C18.25 10.8567 16.5637 13.1778 14.809 14.7667C13.9201 15.5716 12.9807 16.2197 12.157 16.6704C11.7451 16.8958 11.353 17.0768 11.0025 17.2035C10.6671 17.3247 10.3145 17.4167 10 17.4167C9.68549 17.4167 9.33285 17.3247 8.99745 17.2035C8.647 17.0768 8.25486 16.8958 7.84304 16.6704C7.01926 16.2197 6.07986 15.5716 5.19096 14.7667C3.43628 13.1778 1.75 10.8567 1.75 8.12918Z" />
    </symbol>
</svg>